<?xml version="1.0" encoding="UTF-8"?>
<svg id="Layer_2" data-name="Layer 2" xmlns="http://www.w3.org/2000/svg" viewBox="0 0 177.36 177.36">
  <defs>
    <style>
      .cls-1 {
        fill: none;
      }

      .cls-2 {
        fill: #fff;
      }

      .cls-3 {
        fill: #bad2ee;
      }

      .cls-4 {
        fill: #84d5f7;
      }
    </style>
  </defs>
  <g id="Layer_1-2" data-name="Layer 1">
    <path class="cls-3" d="m151.81,138.12c-.51-15.47-25.27-37.14-37.17-47.56l-2.15-1.88,2.15-1.88c11.9-10.41,36.66-32.08,37.17-47.56.13-3.76-1.17-6.95-3.96-9.73s-5.98-4.08-9.73-3.96c-15.47.51-37.14,25.27-47.56,37.17l-1.88,2.15-1.88-2.15c-10.41-11.9-32.08-36.66-47.56-37.17-.17,0-.33,0-.49,0-3.55,0-6.58,1.3-9.24,3.96-2.79,2.79-4.08,5.97-3.96,9.73.51,15.47,25.27,37.14,37.17,47.56l2.15,1.88-2.15,1.88c-11.9,10.41-36.66,32.08-37.17,47.56-.13,3.76,1.17,6.95,3.96,9.73,2.79,2.79,5.97,4.09,9.73,3.96,15.47-.51,37.14-25.27,47.56-37.17l1.88-2.15,1.88,2.15c10.41,11.9,32.08,36.66,47.56,37.17,3.75.12,6.95-1.17,9.73-3.96,2.79-2.79,4.08-5.97,3.96-9.73Z"/>
    <path class="cls-3" d="m108.2,69.16c1.82-27.29,3.27-66.66-19.52-66.66s-21.33,39.37-19.52,66.66c-27.29-1.82-66.66-3.27-66.66,19.52,0,22.78,39.37,21.33,66.66,19.52-1.82,27.29-3.27,66.66,19.52,66.66s21.33-39.37,19.52-66.66c27.29,1.82,66.66,3.27,66.66-19.52s-39.37-21.33-66.66-19.52Z"/>
    <circle class="cls-4" cx="88.68" cy="88.68" r="28.26"/>
    <path class="cls-1" d="m66.49,110.87c-8.88.55-17.65.88-25.77.64-8.12,8.91-14.89,18.59-15.16,26.6-.13,3.76,1.17,6.95,3.96,9.73,2.79,2.79,5.97,4.09,9.73,3.96,8.02-.27,17.69-7.04,26.61-15.16-.24-8.12.09-16.89.64-25.77Z"/>
    <path class="cls-1" d="m88.68,120.07c-5.89,6.67-11.86,13.1-17.77,18.67.56,12.04,2.61,23.68,8.09,29.53,2.57,2.75,5.74,4.08,9.68,4.08s7.11-1.34,9.68-4.08c5.48-5.86,7.53-17.49,8.09-29.53-5.91-5.57-11.88-12.01-17.77-18.67Z"/>
    <path class="cls-1" d="m120.07,88.68c6.67,5.89,13.1,11.86,18.67,17.77,12.05-.56,23.68-2.61,29.53-8.09,2.75-2.57,4.08-5.74,4.08-9.68s-1.34-7.11-4.08-9.68c-5.86-5.48-17.49-7.53-29.53-8.09-5.57,5.91-12.01,11.88-18.67,17.77Z"/>
    <path class="cls-1" d="m57.29,88.68c-6.67-5.89-13.1-11.86-18.67-17.77-12.04.56-23.68,2.61-29.53,8.09-2.75,2.57-4.09,5.74-4.09,9.68s1.34,7.11,4.08,9.68c5.86,5.48,17.49,7.53,29.53,8.09,5.57-5.91,12.01-11.88,18.67-17.77Z"/>
    <path class="cls-1" d="m63.33,106.06c-2.39-3.47-4.06-7.46-4.86-11.75-3.95,3.51-8.58,7.73-13.1,12.31,6.43.04,12.69-.25,17.97-.56Z"/>
    <path class="cls-1" d="m118.9,94.31c-.8,4.29-2.48,8.28-4.86,11.75,5.27.31,11.54.6,17.97.56-4.52-4.58-9.15-8.81-13.1-12.31Z"/>
    <path class="cls-1" d="m106.06,114.03c-3.47,2.39-7.46,4.06-11.75,4.86,3.51,3.95,7.73,8.58,12.31,13.1.04-6.43-.25-12.69-.56-17.97Z"/>
    <path class="cls-1" d="m110.87,110.87c.55,8.88.88,17.65.64,25.77,8.91,8.12,18.59,14.9,26.61,15.16,3.75.12,6.95-1.17,9.73-3.96,2.79-2.79,4.08-5.97,3.96-9.73-.27-8.02-7.04-17.69-15.16-26.61-8.12.24-16.89-.09-25.77-.64Z"/>
    <path class="cls-1" d="m83.05,118.9c-4.29-.8-8.28-2.48-11.75-4.86-.31,5.27-.6,11.54-.56,17.97,4.58-4.52,8.8-9.15,12.31-13.1Z"/>
    <path class="cls-1" d="m114.03,71.3c2.39,3.47,4.06,7.46,4.86,11.75,3.95-3.51,8.58-7.73,13.1-12.31-6.43-.04-12.69.25-17.97.56Z"/>
    <path class="cls-1" d="m94.31,58.46c4.29.8,8.28,2.48,11.75,4.86.31-5.27.6-11.54.56-17.97-4.58,4.52-8.8,9.15-12.31,13.1Z"/>
    <path class="cls-1" d="m110.87,66.49c8.88-.55,17.65-.88,25.77-.64,8.12-8.91,14.9-18.59,15.16-26.61.13-3.76-1.17-6.95-3.96-9.73s-5.98-4.08-9.73-3.96c-8.02.27-17.69,7.04-26.61,15.16.24,8.12-.09,16.89-.64,25.77Z"/>
    <path class="cls-1" d="m114.38,87.02c-.82-12.88-11.16-23.22-24.04-24.04l-1.66,1.89-1.66-1.89c-12.88.82-23.22,11.16-24.04,24.04l1.89,1.66-1.89,1.66c.82,12.88,11.16,23.22,24.04,24.04l1.66-1.89,1.66,1.89c12.88-.82,23.22-11.16,24.04-24.04l-1.89-1.66,1.89-1.66Z"/>
    <path class="cls-1" d="m88.68,57.29c5.89-6.67,11.86-13.1,17.77-18.67-.56-12.04-2.61-23.68-8.09-29.53-2.57-2.75-5.74-4.08-9.68-4.08s-7.11,1.34-9.68,4.08c-5.48,5.86-7.53,17.49-8.09,29.53,5.91,5.57,11.88,12.01,17.77,18.67Z"/>
    <path class="cls-1" d="m66.49,66.49c-.55-8.88-.88-17.65-.64-25.77-8.91-8.12-18.59-14.9-26.61-15.16-.17,0-.33,0-.49,0-3.55,0-6.58,1.3-9.24,3.96-2.79,2.79-4.08,5.97-3.96,9.73.27,8.02,7.04,17.69,15.16,26.61,8.12-.24,16.89.09,25.77.64Z"/>
    <path class="cls-1" d="m71.3,63.33c3.47-2.39,7.46-4.06,11.75-4.86-3.51-3.95-7.73-8.58-12.31-13.1-.04,6.43.25,12.69.56,17.97Z"/>
    <path class="cls-1" d="m58.46,83.05c.8-4.29,2.48-8.28,4.86-11.75-5.27-.31-11.54-.6-17.97-.56,4.52,4.58,9.15,8.81,13.1,12.31Z"/>
    <path class="cls-2" d="m177.36,88.68c0-5.33-1.91-9.81-5.67-13.33-6.08-5.69-16.37-8.27-28.67-9.18,8.06-9.34,13.5-18.45,13.78-26.76.17-5.15-1.65-9.67-5.42-13.43s-8.29-5.6-13.43-5.42c-8.32.28-17.42,5.72-26.76,13.78-.91-12.3-3.49-22.59-9.18-28.67-3.52-3.76-8-5.67-13.33-5.67s-9.81,1.91-13.33,5.67c-5.69,6.08-8.27,16.37-9.18,28.67-9.34-8.06-18.45-13.5-26.76-13.78-5.15-.18-9.67,1.65-13.43,5.42s-5.59,8.29-5.42,13.43c.28,8.32,5.72,17.42,13.78,26.76-12.3.91-22.59,3.49-28.67,9.18-3.76,3.52-5.67,8-5.67,13.33s1.91,9.81,5.67,13.33c6.08,5.68,16.37,8.27,28.67,9.18-8.06,9.34-13.5,18.44-13.78,26.76-.17,5.15,1.65,9.67,5.42,13.43,3.6,3.6,7.9,5.43,12.77,5.43.22,0,.44,0,.66-.01,8.32-.28,17.42-5.72,26.76-13.78.91,12.3,3.49,22.59,9.18,28.67,3.52,3.76,8,5.67,13.33,5.67s9.81-1.91,13.33-5.67c5.69-6.08,8.27-16.37,9.18-28.67,9.34,8.06,18.45,13.5,26.76,13.78,5.15.18,9.67-1.65,13.43-5.42,3.77-3.77,5.59-8.29,5.42-13.43-.28-8.32-5.72-17.42-13.78-26.76,12.3-.91,22.59-3.49,28.67-9.18,3.76-3.52,5.67-8,5.67-13.33Zm-65.85-47.96c8.91-8.12,18.59-14.9,26.61-15.16,3.76-.13,6.95,1.17,9.73,3.96s4.08,5.97,3.96,9.73c-.27,8.02-7.04,17.69-15.16,26.61-8.12-.24-16.89.09-25.77.64.55-8.88.88-17.65.64-25.77Zm-40.6-2.1c.56-12.04,2.61-23.68,8.09-29.53,2.57-2.75,5.74-4.08,9.68-4.08s7.11,1.34,9.68,4.08c5.48,5.86,7.53,17.49,8.09,29.53.1,2.24.16,4.5.17,6.74.04,6.43-.25,12.69-.56,17.97-3.47-2.39-7.46-4.06-11.75-4.86-1.83-.34-3.71-.54-5.63-.54s-3.8.2-5.63.54c-4.29.8-8.28,2.48-11.75,4.86-.31-5.27-.6-11.54-.56-17.97.01-2.24.07-4.5.17-6.74Zm-45.35.62c-.13-3.76,1.17-6.95,3.96-9.73,2.66-2.66,5.69-3.96,9.24-3.96.16,0,.33,0,.49,0,8.02.27,17.69,7.04,26.61,15.16-.24,8.12.09,16.89.64,25.77-8.88-.55-17.65-.88-25.77-.64-8.12-8.91-14.9-18.59-15.16-26.61Zm-16.47,59.12c-2.75-2.57-4.08-5.74-4.08-9.68s1.34-7.11,4.09-9.68c5.86-5.48,17.49-7.53,29.53-8.09,2.24-.1,4.5-.16,6.74-.17,6.43-.04,12.69.25,17.97.56-2.39,3.47-4.06,7.46-4.86,11.75-.34,1.83-.54,3.71-.54,5.63s.2,3.8.54,5.63c.8,4.29,2.48,8.28,4.86,11.75-5.27.31-11.54.6-17.97.56-2.24-.01-4.5-.07-6.74-.17-12.04-.56-23.68-2.61-29.53-8.09Zm56.76,38.29c-8.91,8.12-18.59,14.9-26.61,15.16-3.77.14-6.95-1.17-9.73-3.96-2.79-2.79-4.08-5.97-3.96-9.73.27-8.01,7.04-17.69,15.16-26.6,8.12.24,16.89-.09,25.77-.64-.55,8.88-.88,17.65-.64,25.77Zm40.6,2.1c-.56,12.04-2.61,23.68-8.09,29.53-2.57,2.75-5.74,4.08-9.68,4.08s-7.11-1.34-9.68-4.08c-5.48-5.86-7.53-17.49-8.09-29.53-.1-2.24-.16-4.5-.17-6.74-.04-6.43.25-12.69.56-17.97,3.47,2.39,7.46,4.06,11.75,4.86,1.83.34,3.71.54,5.63.54s3.8-.2,5.63-.54c4.29-.8,8.28-2.48,11.75-4.86.31,5.27.6,11.54.56,17.97-.01,2.24-.07,4.5-.17,6.74Zm-16.12-24.36c-.55.04-1.1.06-1.66.06s-1.11-.02-1.66-.06c-12.88-.82-23.22-11.16-24.04-24.04-.04-.55-.06-1.1-.06-1.66s.02-1.11.06-1.66c.82-12.88,11.16-23.22,24.04-24.04.55-.04,1.1-.06,1.66-.06s1.11.02,1.66.06c12.88.82,23.22,11.16,24.04,24.04.04.55.06,1.1.06,1.66s-.02,1.11-.06,1.66c-.82,12.88-11.16,23.22-24.04,24.04Zm61.47,23.74c.13,3.76-1.17,6.95-3.96,9.73-2.79,2.79-5.98,4.07-9.73,3.96-8.02-.27-17.69-7.04-26.61-15.16.24-8.12-.09-16.89-.64-25.77,8.88.55,17.65.88,25.77.64,8.12,8.91,14.9,18.59,15.16,26.61Zm-13.06-31.67c-2.24.1-4.5.16-6.74.17-6.43.04-12.69-.25-17.97-.56,2.39-3.47,4.06-7.46,4.86-11.75.34-1.83.54-3.71.54-5.63s-.2-3.8-.54-5.63c-.8-4.29-2.48-8.28-4.86-11.75,5.27-.31,11.54-.6,17.97-.56,2.24.01,4.5.07,6.74.17,12.04.56,23.68,2.61,29.53,8.09,2.75,2.57,4.08,5.74,4.08,9.68s-1.34,7.11-4.08,9.68c-5.86,5.48-17.49,7.53-29.53,8.09Z"/>
  </g>
</svg>